<svg xmlns="http://www.w3.org/2000/svg" viewBox="0 0 400 200" fill="none">
  <!-- Tooth Icon -->
  <g transform="translate(150, 5) scale(0.55)">
    <path d="M92 10C72 2 55 8 48 18C38 8 18 0 8 18C-5 40 5 85 15 120C22 145 30 170 45 170C58 170 55 130 50 110C50 110 52 112 55 112C58 112 60 110 60 110C65 130 62 170 75 170C90 170 98 145 105 120C115 85 125 40 112 18C108 12 100 8 92 10Z" fill="#1B3A7D"/>
    <path d="M60 110C60 110 58 112 55 112C52 112 50 110 50 110C50 95 48 75 42 58C38 48 30 38 28 48C24 65 32 90 35 105" fill="#2B5AAD" opacity="0.3"/>
  </g>
  <!-- Text -->
  <text x="200" y="165" text-anchor="middle" font-family="Georgia, 'Times New Roman', serif" font-size="42" font-weight="bold" fill="#1B3A7D" letter-spacing="4">
    <tspan font-weight="400">ISTA</tspan><tspan font-weight="700">DENTAL</tspan>
  </text>
</svg>
